<?xml version="1.0" encoding="UTF-8" standalone="yes"?>
<svg xmlns="http://www.w3.org/2000/svg" xmlns:xlink="http://www.w3.org/1999/xlink" width="658.302pt" height="241.775pt" version="1.1" viewBox="-302.837 485.702 658.302 241.775">
  <!--
	Exported with Concepts: Smarter Sketching
	Version: 4806 on iOS 26.3
	https://concepts.app/
	-->
  <title>A7BD86E8-7B25-4312-90F8-80B6F50590BC</title>
  <desc>Drawing exported from Concepts: Smarter Sketching</desc>
  <defs></defs>
  <g id="Fill" opacity="1.000">
    <path id="STROKE_b9e15f91-0664-45b1-aeb5-8ad18df4dcae" opacity="0.474" fill="#ffdcae" stroke="#ffdcae" stroke-width="0.500" stroke-opacity="1.000" stroke-linecap="round" stroke-linejoin="round" d="M -286.262 597.605 Q -287.307 597.605 -287.056 597.605 Q -288.104 597.605 -288.015 597.605 Q -287.813 597.376 -288.469 597.837 Q -289.125 598.299 -289.217 602.002 Q -289.309 605.706 -290.175 612.033 Q -291.040 618.359 -291.178 623.354 Q -291.317 628.349 -290.691 633.410 Q -290.065 638.472 -289.707 640.838 Q -289.350 643.204 -289.124 647.553 Q -288.898 651.902 -288.738 656.618 Q -288.577 661.334 -288.612 665.938 Q -288.647 670.542 -288.599 678.776 Q -288.551 687.011 -288.190 691.347 Q -287.828 695.682 -287.816 698.225 Q -287.805 700.768 -287.893 702.488 Q -287.980 704.209 -287.835 704.967 Q -287.690 705.725 -287.274 706.376 Q -286.859 707.028 -286.880 707.017 Q -286.900 707.006 -286.921 706.952 Q -286.941 706.898 -286.715 707.357 Q -286.489 707.816 -286.175 708.441 Q -285.861 709.066 -285.579 709.515 Q -285.297 709.964 -285.221 710.046 Q -285.146 710.128 -285.179 710.091 Q -285.213 710.054 -285.085 710.226 Q -284.957 710.399 -284.194 711.210 Q -283.431 712.021 -282.846 712.427 Q -282.262 712.832 -281.830 713.380 Q -281.398 713.928 -278.594 714.960 Q -275.791 715.993 -270.220 716.183 Q -264.649 716.373 -261.870 716.371 Q -259.091 716.370 -257.423 716.238 Q -255.755 716.107 -250.688 716.629 Q -245.622 717.152 -241.261 717.314 Q -236.900 717.477 -234.362 717.419 Q -231.823 717.362 -230.449 717.326 Q -229.074 717.290 -225.436 717.732 Q -221.798 718.174 -215.661 718.141 Q -209.523 718.108 -191.097 718.215 Q -172.670 718.323 -163.230 718.427 Q -153.789 718.530 -149.706 718.380 Q -145.622 718.230 -139.911 717.554 Q -134.200 716.878 -129.358 716.903 Q -124.515 716.929 -116.437 716.858 Q -108.358 716.786 -103.736 717.022 Q -99.114 717.258 -96.425 717.191 Q -93.735 717.124 -86.370 716.866 Q -79.005 716.607 -75.119 716.728 Q -71.233 716.849 -66.023 715.951 Q -60.812 715.053 -51.333 715.179 Q -41.853 715.305 -34.091 715.027 Q -26.328 714.749 -20.890 714.601 Q -15.453 714.453 -10.116 714.552 Q -4.779 714.650 2.791 714.833 Q 10.362 715.017 18.331 715.092 Q 26.300 715.167 35.398 715.441 Q 44.495 715.714 49.955 715.781 Q 55.414 715.849 57.974 715.821 Q 60.534 715.793 66.184 715.662 Q 71.835 715.532 80.707 715.580 Q 89.580 715.629 97.077 715.626 Q 104.574 715.623 109.026 715.530 Q 113.478 715.436 115.497 715.063 Q 117.515 714.690 132.941 714.539 Q 148.367 714.388 156.657 714.272 Q 164.948 714.156 170.228 713.887 Q 175.509 713.618 179.604 713.541 Q 183.699 713.464 185.895 713.455 Q 188.090 713.446 195.915 713.680 Q 203.739 713.914 210.424 714.091 Q 217.108 714.268 220.737 714.164 Q 224.366 714.060 228.183 713.992 Q 232.000 713.923 238.772 713.368 Q 245.544 712.813 249.776 712.394 Q 254.008 711.975 259.997 712.019 Q 265.987 712.063 272.483 712.051 Q 278.980 712.038 281.694 712.088 Q 284.409 712.139 290.924 712.166 Q 297.440 712.193 301.107 711.907 Q 304.775 711.622 306.352 711.456 Q 307.928 711.290 308.837 711.182 Q 309.746 711.075 310.207 711.016 Q 310.667 710.956 311.128 710.928 Q 311.588 710.901 310.977 710.812 Q 310.366 710.724 335.310 710.449 Q 335.310 710.416 335.244 710.383 Q 335.339 709.566 335.290 710.001 Q 335.241 710.437 335.174 708.892 Q 335.106 707.348 335.529 705.894 Q 335.951 704.441 336.279 703.578 Q 336.606 702.716 337.140 701.249 Q 337.674 699.782 338.082 698.731 Q 338.490 697.679 338.692 697.130 Q 338.893 696.582 339.343 695.476 Q 339.793 694.370 340.104 693.621 Q 340.416 692.873 341.360 690.114 Q 342.304 687.356 343.305 684.951 Q 344.307 682.547 345.723 675.823 Q 347.138 669.099 347.640 664.838 Q 348.142 660.578 348.312 655.286 Q 348.481 649.994 348.728 647.201 Q 348.976 644.408 349.011 638.678 Q 349.046 632.948 348.643 628.189 Q 348.239 623.430 347.791 620.364 Q 347.344 617.297 346.925 615.160 Q 346.507 613.022 345.734 610.935 Q 344.962 608.847 344.396 603.720 Q 343.830 598.592 343.496 595.952 Q 343.161 593.312 342.925 592.287 Q 342.689 591.261 342.505 590.460 Q 342.321 589.659 342.107 588.927 Q 341.892 588.195 341.817 587.901 Q 341.742 587.608 341.733 587.609 Q 341.725 587.611 341.439 586.635 Q 341.152 585.659 340.602 583.317 Q 340.602 583.350 340.602 583.780 Q 340.542 583.595 340.353 583.218 Q 340.164 582.840 340.201 582.916 Q 340.237 582.992 340.157 582.823 Q 340.076 582.654 339.557 581.759 Q 339.039 580.865 338.993 580.817 Q 338.948 580.770 339.015 580.804 Q 338.981 580.771 338.849 580.539 L 338.816 580.539 Q 338.816 580.572 338.783 580.671 Q 337.677 581.173 338.022 581.035 Q 338.918 580.660 335.046 582.386 Q 331.174 584.113 322.469 584.343 Q 313.763 584.573 308.047 584.796 Q 302.331 585.019 299.105 585.239 Q 295.878 585.458 294.007 585.663 Q 292.135 585.868 285.451 585.727 Q 278.767 585.586 268.812 585.238 Q 258.858 584.890 253.684 585.046 Q 248.509 585.201 240.037 584.951 Q 231.564 584.700 222.714 584.941 Q 213.863 585.182 209.478 585.533 Q 205.092 585.884 203.198 585.975 Q 201.304 586.066 195.996 586.711 Q 190.687 587.356 177.882 587.654 Q 165.077 587.952 158.574 587.978 Q 152.072 588.003 149.006 588.065 Q 145.941 588.127 140.124 588.478 Q 134.308 588.829 120.968 589.437 Q 107.627 590.045 99.561 590.215 Q 91.495 590.384 86.084 590.498 Q 80.674 590.611 77.455 590.626 Q 74.236 590.640 66.928 590.748 Q 59.621 590.856 54.364 590.879 Q 49.108 590.902 37.854 591.005 Q 26.601 591.107 15.116 591.090 Q 3.631 591.073 -1.893 591.148 Q -7.417 591.223 -17.342 591.025 Q -27.268 590.827 -34.621 590.560 Q -41.974 590.294 -45.575 590.141 Q -49.176 589.988 -59.203 590.166 Q -69.231 590.344 -87.182 590.582 Q -105.133 590.820 -114.284 590.815 Q -123.436 590.810 -127.450 590.920 Q -131.464 591.030 -135.658 591.635 Q -139.851 592.239 -152.430 592.530 Q -165.009 592.821 -175.650 592.533 Q -186.290 592.246 -191.914 591.623 Q -197.538 591.001 -201.860 591.486 Q -200.885 592.063 -200.868 591.916 "></path>
  </g>
  <g id="Pen" opacity="1.000">
    <path id="STROKE_e89755db-9764-4146-a667-5f23999f291f" opacity="1.000" fill="none" stroke="#171612" stroke-width="5.949" stroke-opacity="1.000" stroke-linecap="round" stroke-linejoin="round" d="M -287.916 595.620 Q -287.976 596.210 -288.099 603.944 Q -288.221 611.678 -288.251 616.992 Q -288.281 622.307 -288.279 626.600 Q -288.278 630.894 -287.995 640.887 Q -287.712 650.880 -286.475 666.078 Q -285.237 681.275 -284.591 689.342 Q -283.944 697.408 -283.677 703.283 Q -283.410 709.159 -283.302 711.301 Q -283.193 713.443 -283.181 714.401 Q -283.295 714.623 -281.962 711.375 "></path>
    <path id="STROKE_26938dd5-4c18-42c3-94b3-8068c311c853" opacity="1.000" fill="none" stroke="#171612" stroke-width="5.917" stroke-opacity="1.000" stroke-linecap="round" stroke-linejoin="round" d="M -291.024 596.546 L -289.687 596.436 Q -288.114 596.381 -276.655 596.017 Q -265.196 595.654 -258.666 595.312 Q -252.135 594.969 -243.540 594.406 Q -234.946 593.843 -230.104 593.514 Q -225.263 593.186 -210.034 591.867 Q -194.804 590.549 -181.988 589.345 Q -169.172 588.141 -157.296 587.519 Q -145.419 586.897 -127.926 586.905 Q -110.434 586.914 -101.647 587.136 Q -92.859 587.358 -85.961 587.577 Q -79.063 587.795 -75.733 587.899 Q -72.402 588.002 -65.136 588.232 Q -57.869 588.463 -31.310 588.847 Q -4.752 589.231 8.914 589.254 Q 22.579 589.277 28.930 589.287 Q 35.281 589.297 38.221 589.305 Q 41.161 589.313 48.697 589.364 Q 56.233 589.415 68.097 589.581 Q 79.961 589.747 89.494 589.884 Q 99.026 590.021 104.199 590.068 Q 109.371 590.114 123.611 589.934 Q 137.850 589.754 147.634 589.460 Q 157.418 589.165 165.954 588.956 Q 174.490 588.746 184.717 588.460 Q 194.943 588.173 200.060 587.988 Q 205.176 587.804 213.656 587.402 Q 222.137 587.000 226.702 586.751 Q 231.267 586.502 235.625 586.252 Q 239.984 586.002 260.907 585.006 Q 281.831 584.011 295.661 583.485 Q 309.491 582.959 335.353 580.758 L 337.956 579.745 "></path>
    <path id="STROKE_5cdca1b3-14aa-456d-bdd0-fee708881d9d" opacity="1.000" fill="none" stroke="#171612" stroke-width="5.996" stroke-opacity="1.000" stroke-linecap="round" stroke-linejoin="round" d="M -280.772 712.698 Q -280.524 712.713 -276.320 713.461 Q -272.116 714.209 -265.821 714.943 Q -259.527 715.676 -246.856 716.194 Q -234.186 716.711 -226.102 716.739 Q -218.019 716.766 -210.770 716.605 Q -203.521 716.445 -195.965 715.990 Q -188.409 715.535 -180.461 714.888 Q -172.513 714.241 -159.797 713.427 Q -147.082 712.613 -133.288 712.419 Q -119.494 712.225 -112.620 712.318 Q -105.746 712.411 -92.191 712.846 Q -78.635 713.281 -71.602 713.549 Q -64.568 713.818 -59.578 714.015 Q -54.588 714.211 -52.107 714.314 Q -49.626 714.416 -34.209 714.884 Q -18.792 715.352 -2.079 715.583 Q 14.633 715.815 27.037 715.875 Q 39.440 715.935 46.707 715.941 Q 53.973 715.946 68.835 716.093 Q 83.698 716.239 91.772 716.396 Q 99.846 716.552 104.393 716.630 Q 108.940 716.709 131.362 716.864 Q 153.784 717.019 166.907 717.027 Q 180.030 717.036 185.975 717.004 Q 191.919 716.972 196.711 716.919 Q 201.503 716.867 210.883 716.602 Q 220.264 716.337 226.093 716.120 Q 231.923 715.902 236.315 715.734 Q 240.706 715.567 242.985 715.484 Q 245.264 715.402 255.928 714.972 Q 266.591 714.541 284.186 713.845 Q 301.782 713.149 310.614 713.006 Q 319.447 712.864 324.400 712.854 Q 329.352 712.844 339.023 713.160 L 341.197 713.029 "></path>
    <path id="STROKE_aa953b4f-672e-4c64-9e91-d35e85233078" opacity="1.000" fill="none" stroke="#171612" stroke-width="6.086" stroke-opacity="1.000" stroke-linecap="round" stroke-linejoin="round" d="M 337.096 580.076 L 336.979 581.310 Q 336.958 582.121 337.035 586.656 Q 337.112 591.192 337.259 597.096 Q 337.406 603.001 337.524 606.911 Q 337.642 610.821 337.733 617.297 Q 337.823 623.773 337.821 632.499 Q 337.819 641.225 337.733 646.247 Q 337.647 651.269 337.445 656.572 Q 337.242 661.876 337.121 665.183 Q 336.999 668.490 336.722 673.419 Q 336.445 678.349 336.207 682.193 Q 335.970 686.038 335.799 689.230 Q 335.628 692.422 335.567 694.527 Q 335.506 696.631 335.371 707.524 Q 335.414 707.692 335.509 709.656 "></path>
    <path id="STROKE_64298516-7888-48d7-8bd1-9b5c1d6e8e15" opacity="1.000" fill="none" stroke="#171612" stroke-width="5.727" stroke-opacity="1.000" stroke-linecap="round" stroke-linejoin="round" d="M -165.943 587.551 Q -165.910 588.201 -165.867 593.133 Q -165.823 598.064 -165.859 603.028 Q -165.896 607.992 -165.954 610.802 Q -166.012 613.612 -166.191 618.720 Q -166.371 623.828 -166.555 628.402 Q -166.739 632.977 -167.390 647.847 Q -168.042 662.717 -168.380 669.889 Q -168.718 677.062 -168.856 679.764 Q -168.995 682.466 -169.060 683.855 Q -169.126 685.245 -169.246 687.485 Q -169.366 689.725 -169.590 694.130 Q -169.814 698.535 -169.971 701.131 Q -170.129 703.727 -170.507 706.348 "></path>
    <path id="STROKE_549ec722-9797-4ad6-bbf0-7880811a4450" opacity="1.000" fill="none" stroke="#171612" stroke-width="5.425" stroke-opacity="1.000" stroke-linecap="round" stroke-linejoin="round" d="M -21.546 588.873 Q -21.563 589.185 -21.923 592.674 Q -22.284 596.163 -22.880 601.735 Q -23.476 607.307 -23.870 610.903 Q -24.265 614.500 -26.206 630.889 Q -28.148 647.278 -28.674 651.313 Q -29.199 655.348 -30.667 665.141 Q -32.134 674.933 -32.913 679.957 Q -33.692 684.982 -34.026 687.087 Q -34.360 689.192 -34.725 691.627 Q -35.090 694.062 -37.225 703.800 Q -37.228 703.809 -38.943 704.033 "></path>
    <path id="STROKE_776ad0f6-a128-4c55-abe1-95f3bb551b71" opacity="1.000" fill="none" stroke="#171612" stroke-width="6.006" stroke-opacity="1.000" stroke-linecap="round" stroke-linejoin="round" d="M 234.835 591.652 Q 234.659 592.556 234.434 594.124 Q 234.210 595.693 233.633 599.683 Q 233.056 603.673 232.195 610.784 Q 231.333 617.895 230.949 621.845 Q 230.565 625.795 230.237 629.699 Q 229.909 633.603 229.764 635.723 Q 229.618 637.843 229.065 646.366 Q 228.512 654.889 228.236 659.419 Q 227.960 663.950 227.717 667.765 Q 227.475 671.579 226.890 680.201 Q 226.305 688.823 226.101 691.366 Q 225.897 693.909 225.495 698.439 Q 225.093 702.969 224.043 709.812 L 222.929 711.111 "></path>
    <path id="STROKE_d0af3103-7be8-46fb-99cf-70977453332c" opacity="1.000" fill="none" stroke="#171612" stroke-width="5.038" stroke-opacity="1.000" stroke-linecap="round" stroke-linejoin="round" d="M -241.746 635.572 Q -242.159 635.276 -242.796 633.402 Q -241.281 631.149 -239.800 630.332 Q -238.320 629.514 -236.708 629.546 Q -235.097 629.578 -233.068 631.487 Q -231.039 633.396 -229.674 641.909 Q -228.309 650.423 -227.425 655.793 Q -226.541 661.162 -226.069 665.903 Q -226.127 665.846 -228.002 664.777 Q -229.876 663.708 -233.038 662.097 Q -236.199 660.485 -239.095 659.750 Q -241.990 659.016 -243.893 659.106 Q -245.796 659.196 -247.251 660.287 Q -248.707 661.379 -249.190 663.914 Q -249.673 666.449 -249.215 668.746 Q -248.756 671.043 -247.175 672.510 Q -245.593 673.977 -244.001 674.599 Q -242.408 675.220 -240.509 675.433 Q -238.610 675.647 -236.037 674.899 Q -233.464 674.151 -232.147 673.268 Q -230.831 672.384 -229.999 671.335 Q -229.167 670.286 -228.186 667.852 "></path>
    <path id="STROKE_7524fa5f-0a3f-4758-9b68-4eca71f8a2ff" opacity="1.000" fill="none" stroke="#171612" stroke-width="5.038" stroke-opacity="1.000" stroke-linecap="round" stroke-linejoin="round" d="M -217.470 676.120 Q -217.563 676.078 -218.548 675.984 Q -218.056 675.681 -218.057 675.598 Q -217.467 675.228 -214.380 671.679 Q -211.293 668.131 -208.817 662.778 Q -208.780 662.474 -208.891 666.631 Q -209.002 670.789 -209.025 676.848 Q -209.048 682.908 -209.322 692.376 Q -209.562 692.328 -209.661 692.393 L -210.356 692.387 Q -211.424 692.292 -211.905 692.142 Q -212.387 691.992 -218.193 691.569 Q -217.710 691.706 -210.965 691.356 Q -204.219 691.006 -197.824 689.155 Q -197.697 688.879 -197.560 686.902 "></path>
    <path id="STROKE_74140c28-17ae-4caf-aa54-aee17d61ea96" opacity="1.000" fill="none" stroke="#171612" stroke-width="5.178" stroke-opacity="1.000" stroke-linecap="round" stroke-linejoin="round" d="M -113.555 634.316 Q -114.312 633.448 -114.465 633.058 Q -114.617 632.668 -114.632 632.622 Q -114.647 632.576 -114.551 631.215 Q -114.454 629.854 -113.348 628.101 Q -112.243 626.348 -110.367 625.154 Q -108.490 623.961 -106.311 623.544 Q -104.132 623.128 -102.144 623.795 Q -100.156 624.462 -98.466 626.158 Q -96.777 627.853 -95.215 630.890 Q -93.653 633.927 -93.228 640.435 Q -92.803 646.944 -92.892 650.485 Q -92.981 654.026 -93.342 655.663 Q -93.703 657.300 -94.180 658.160 Q -94.658 659.020 -95.274 659.430 Q -95.891 659.839 -97.240 659.787 Q -98.589 659.735 -101.631 657.962 Q -104.673 656.189 -106.430 655.087 Q -108.187 653.985 -110.140 653.309 Q -112.093 652.633 -113.442 652.671 Q -114.791 652.709 -115.757 654.074 Q -116.723 655.439 -116.983 657.593 Q -117.243 659.747 -117.187 661.033 Q -117.131 662.319 -116.490 663.890 Q -115.849 665.460 -114.390 666.693 Q -112.931 667.926 -110.678 668.311 Q -108.426 668.695 -105.968 668.417 Q -103.510 668.138 -100.253 665.995 Q -96.995 663.852 -94.373 659.848 "></path>
    <path id="STROKE_57cd5c13-007c-459a-a4e2-944d39bced65" opacity="1.000" fill="none" stroke="#171612" stroke-width="5.178" stroke-opacity="1.000" stroke-linecap="round" stroke-linejoin="round" d="M -87.097 668.976 L -87.632 668.774 L -88.108 668.529 Q -88.171 667.820 -88.118 667.849 Q -88.065 667.877 -86.841 667.649 Q -85.617 667.421 -83.980 667.812 Q -82.343 668.203 -81.327 669.198 Q -80.312 670.193 -80.158 671.777 Q -80.005 673.360 -81.377 675.260 Q -82.749 677.159 -86.601 681.078 Q -84.411 681.679 -80.574 681.518 Q -76.737 681.357 -72.677 680.816 "></path>
    <path id="STROKE_86e75e61-62be-4c48-b2e9-2eec8b3d1367" opacity="1.000" fill="none" stroke="#171612" stroke-width="3.794" stroke-opacity="1.000" stroke-linecap="round" stroke-linejoin="round" d="M 62.393 650.124 Q 61.336 650.218 61.004 650.380 Q 60.672 650.543 60.529 650.834 Q 60.385 651.124 60.335 651.504 Q 60.285 651.883 60.267 651.912 Q 60.248 651.942 60.356 652.192 Q 60.465 652.441 60.498 652.436 Q 60.532 652.431 60.728 652.536 Q 60.924 652.642 61.518 652.617 Q 62.112 652.591 62.179 652.537 Q 62.245 652.483 62.738 652.075 Q 63.231 651.668 63.313 650.995 Q 63.395 650.322 63.183 649.981 Q 62.970 649.640 62.542 649.602 Q 62.115 649.565 61.931 649.710 Q 61.747 649.856 61.363 651.355 Q 61.484 651.529 65.502 650.058 "></path>
    <path id="STROKE_020a8487-2ea7-4b5d-aaaf-19ff267f1993" opacity="1.000" fill="none" stroke="#171612" stroke-width="3.794" stroke-opacity="1.000" stroke-linecap="round" stroke-linejoin="round" d="M 86.536 651.778 Q 86.121 651.496 85.727 651.297 Q 85.334 651.098 85.289 651.102 Q 85.414 652.113 85.504 652.191 Q 85.594 652.269 87.343 652.800 Q 89.092 653.331 88.395 653.017 Q 88.407 653.014 88.159 652.650 Q 87.911 652.286 87.887 652.287 Q 87.862 652.287 87.633 652.186 Q 87.403 652.084 87.180 652.060 Q 86.957 652.036 87.003 652.149 Q 87.218 652.113 89.777 651.778 "></path>
    <path id="STROKE_196e8c39-86bc-4680-8b7b-ea7e02a27c0d" opacity="1.000" fill="none" stroke="#171612" stroke-width="3.794" stroke-opacity="1.000" stroke-linecap="round" stroke-linejoin="round" d="M 123.511 652.969 Q 122.925 651.882 122.851 651.851 L 122.447 651.330 Q 121.833 650.611 120.979 650.386 Q 120.125 650.162 119.687 650.305 Q 119.250 650.447 119.116 650.577 Q 118.983 650.707 118.507 651.625 Q 118.032 652.544 118.033 652.942 Q 118.035 653.340 118.062 653.653 Q 118.089 653.966 118.100 654.177 Q 118.111 654.387 118.394 654.841 Q 118.678 655.295 119.004 655.427 Q 119.330 655.559 119.636 655.537 Q 119.941 655.516 120.204 655.229 Q 120.466 654.943 120.583 654.695 Q 120.700 654.447 120.646 654.016 L 119.344 655.350 "></path>
    <path id="STROKE_9252ce3f-d905-4030-a6aa-c0e45042a8a0" opacity="1.000" fill="none" stroke="#171612" stroke-width="5.038" stroke-opacity="1.000" stroke-linecap="round" stroke-linejoin="round" d="M 258.780 635.308 Q 259.017 634.070 259.088 633.708 Q 259.160 633.346 259.194 633.317 Q 259.228 633.288 259.460 632.875 Q 259.693 632.462 260.671 631.594 Q 261.649 630.726 262.610 630.208 Q 263.571 629.689 265.457 629.292 Q 267.342 628.895 268.322 628.980 Q 269.301 629.065 270.242 629.479 Q 271.184 629.893 272.391 631.992 Q 273.598 634.091 274.013 635.597 Q 274.428 637.102 274.710 638.853 Q 274.991 640.604 275.099 646.170 Q 275.207 651.736 274.611 658.379 Q 274.614 658.489 271.646 657.118 Q 268.678 655.748 265.500 654.797 Q 262.322 653.847 260.542 653.775 Q 258.761 653.704 258.071 653.832 Q 257.382 653.961 256.457 654.670 Q 255.531 655.379 255.286 656.853 Q 255.040 658.326 255.742 659.599 Q 256.445 660.872 257.121 661.359 Q 257.798 661.847 260.976 662.251 Q 264.155 662.655 268.329 661.828 Q 272.502 661.001 276.639 658.922 "></path>
    <path id="STROKE_118671cb-1b7c-463d-8ffa-ffdb762c882a" opacity="1.000" fill="none" stroke="#171612" stroke-width="5.038" stroke-opacity="1.000" stroke-linecap="round" stroke-linejoin="round" d="M 284.841 657.334 L 284.931 657.532 Q 284.926 658.477 285.362 664.121 Q 285.798 669.765 286.593 675.251 L 286.591 674.795 Q 286.534 674.438 286.361 671.948 Q 286.189 669.459 286.456 667.095 Q 286.723 664.732 288.577 662.156 Q 290.432 659.579 291.918 658.790 Q 293.405 658.000 294.069 658.038 Q 294.734 658.076 295.186 658.325 Q 295.637 658.575 296.018 659.372 Q 296.399 660.169 296.523 661.398 Q 296.646 662.627 296.654 664.565 Q 296.662 666.503 296.941 667.983 Q 297.220 669.462 297.844 670.373 Q 298.468 671.285 298.990 671.533 Q 299.513 671.781 300.387 671.858 Q 301.260 671.935 306.537 668.844 "></path>
    <path id="STROKE_2d6c7727-b397-453b-9ac7-c808b913fd51" opacity="1.000" fill="none" stroke="#000000" stroke-width="5.425" stroke-opacity="1.000" stroke-linecap="round" stroke-linejoin="round" stroke-dasharray="0.542,8.137" d="M -290.958 577.695 Q -290.949 577.248 -290.970 570.793 Q -290.991 564.338 -290.382 559.691 Q -289.772 555.045 -286.065 547.457 L -285.524 547.122 Q -285.107 546.865 -282.976 545.999 Q -280.846 545.133 -269.282 544.347 Q -257.719 543.561 -256.836 543.601 Q -255.953 543.641 -255.833 543.658 Q -255.713 543.675 -250.930 543.864 Q -246.146 544.052 -235.599 544.179 Q -225.053 544.306 -219.258 544.270 Q -213.464 544.235 -211.038 544.223 Q -208.613 544.211 -207.230 544.177 Q -205.847 544.142 -204.720 544.141 Q -203.594 544.139 -199.453 544.103 Q -195.311 544.068 -192.510 544.049 Q -189.709 544.030 -184.202 544.703 Q -178.696 545.376 -172.944 547.873 L -171.470 548.971 Q -170.317 550.517 -168.801 553.933 Q -167.284 557.349 -166.669 560.099 Q -166.055 562.848 -165.862 564.250 Q -165.669 565.653 -165.139 569.428 L -164.487 570.750 "></path>
    <path id="STROKE_9be73550-1706-4b32-b8c7-181fb3fd96b3" opacity="1.000" fill="none" stroke="#171612" stroke-width="3.794" stroke-opacity="1.000" stroke-linecap="round" stroke-linejoin="round" d="M -265.412 496.073 Q -265.516 496.012 -266.621 495.635 Q -267.725 495.258 -268.947 495.252 Q -270.170 495.245 -271.217 495.615 Q -272.264 495.984 -273.790 497.192 Q -275.316 498.400 -276.347 499.899 Q -277.379 501.398 -278.068 503.216 Q -278.757 505.035 -279.103 507.478 Q -279.449 509.922 -279.354 512.022 Q -279.259 514.122 -278.714 516.078 Q -278.169 518.034 -277.109 519.838 Q -276.050 521.641 -275.438 522.507 Q -274.826 523.372 -274.024 524.218 Q -273.222 525.063 -272.201 525.730 Q -271.180 526.397 -269.891 526.701 Q -268.603 527.004 -267.511 526.767 Q -266.420 526.529 -265.746 526.116 Q -265.071 525.703 -264.282 524.747 Q -263.493 523.791 -263.047 522.583 Q -262.602 521.375 -262.567 520.271 Q -262.533 519.166 -263.092 518.127 Q -263.651 517.088 -264.392 516.453 Q -265.133 515.819 -266.447 515.441 Q -267.761 515.064 -269.177 515.048 Q -270.593 515.033 -271.621 515.183 Q -272.649 515.333 -273.741 515.792 Q -274.833 516.251 -276.053 517.275 Q -277.273 518.299 -277.837 518.899 Q -278.402 519.500 -278.719 520.031 Q -279.035 520.562 -279.128 520.979 Q -279.220 521.396 -279.095 521.744 Q -278.969 522.093 -278.043 523.113 "></path>
    <path id="STROKE_89870d68-e943-41bb-9844-c88a99ae36d0" opacity="1.000" fill="none" stroke="#171612" stroke-width="3.794" stroke-opacity="1.000" stroke-linecap="round" stroke-linejoin="round" d="M -251.822 498.385 L -251.959 498.540 Q -252.047 498.889 -252.151 501.651 Q -252.256 504.413 -252.637 507.394 Q -253.017 510.375 -253.724 513.309 Q -254.430 516.244 -257.323 524.140 Q -257.276 524.156 -255.303 525.017 Q -253.329 525.878 -251.105 526.346 Q -248.880 526.813 -247.472 526.871 Q -246.065 526.929 -245.145 526.845 Q -244.225 526.761 -243.263 526.386 Q -242.301 526.012 -241.886 525.606 Q -241.470 525.201 -241.346 524.958 Q -241.222 524.715 -241.186 524.538 Q -241.150 524.361 -241.164 523.943 Q -241.179 523.524 -241.486 522.716 Q -241.793 521.908 -242.098 521.241 Q -242.403 520.575 -243.300 517.357 Q -243.323 517.337 -242.979 519.017 Q -242.635 520.696 -242.467 521.884 Q -242.299 523.072 -242.197 523.917 Q -242.095 524.761 -241.876 526.848 Q -241.657 528.935 -241.537 529.852 Q -241.417 530.768 -241.259 531.231 Q -241.101 531.694 -240.871 531.950 L -240.826 532.079 "></path>
    <path id="STROKE_4d0b46e8-8342-4ad8-9826-d712a6b5b1d5" opacity="1.000" fill="none" stroke="#171612" stroke-width="3.743" stroke-opacity="1.000" stroke-linecap="round" stroke-linejoin="round" d="M -225.036 494.833 Q -225.266 495.184 -224.222 500.624 Q -223.179 506.064 -222.086 515.445 Q -222.094 515.462 -221.881 514.757 Q -221.669 514.052 -220.617 512.799 Q -219.565 511.547 -218.585 510.865 Q -217.605 510.183 -216.584 509.944 Q -215.562 509.705 -214.920 509.739 Q -214.279 509.774 -213.592 510.080 Q -212.906 510.386 -212.366 511.438 Q -211.826 512.489 -211.718 513.718 Q -211.611 514.946 -211.766 515.903 Q -211.922 516.860 -212.438 517.684 Q -212.955 518.508 -213.649 519.028 Q -214.343 519.548 -215.070 519.871 Q -215.796 520.195 -217.015 520.487 Q -218.234 520.780 -219.542 520.801 Q -220.850 520.822 -222.619 519.911 Q -222.517 519.871 -221.117 519.898 "></path>
    <path id="STROKE_60564d7c-0797-4368-805c-da1a3427513e" opacity="1.000" fill="none" stroke="#171612" stroke-width="3.794" stroke-opacity="1.000" stroke-linecap="round" stroke-linejoin="round" d="M -204.425 510.086 Q -204.641 510.112 -204.818 510.163 Q -204.928 510.251 -204.905 511.986 Q -204.881 513.721 -204.572 515.051 Q -204.263 516.381 -203.716 517.120 Q -203.532 516.873 -203.354 516.233 "></path>
    <path id="STROKE_0fcad1dc-25e9-44c8-ac87-dd193eb1b7b2" opacity="1.000" fill="none" stroke="#171612" stroke-width="3.794" stroke-opacity="1.000" stroke-linecap="round" stroke-linejoin="round" d="M -204.707 500.077 Q -204.753 500.076 -205.893 499.633 Q -205.863 499.627 -204.651 499.851 "></path>
    <path id="STROKE_a62b8462-bbed-481d-9e44-595bb9c598c9" opacity="1.000" fill="none" stroke="#171612" stroke-width="3.794" stroke-opacity="1.000" stroke-linecap="round" stroke-linejoin="round" d="M -195.036 496.947 Q -195.043 496.958 -195.542 496.822 Q -195.619 497.114 -195.298 499.276 Q -194.976 501.437 -194.584 506.234 Q -194.191 511.031 -194.050 513.545 Q -193.909 516.060 -193.810 517.261 Q -193.711 518.462 -193.366 519.634 Q -193.020 520.806 -192.683 521.441 Q -192.346 522.075 -191.815 522.375 Q -191.284 522.674 -190.564 522.536 Q -189.844 522.398 -188.605 521.164 Q -187.366 519.930 -186.797 519.122 Q -186.227 518.313 -186.056 517.746 Q -185.884 517.179 -186.183 515.895 "></path>
    <path id="STROKE_9c60965d-d334-4d41-8a2c-2924ebc9c94d" opacity="1.000" fill="none" stroke="#171612" stroke-width="3.794" stroke-opacity="1.000" stroke-linecap="round" stroke-linejoin="round" d="M -199.463 509.861 Q -199.539 509.846 -199.763 509.768 Q -199.986 509.690 -200.079 509.614 Q -200.171 509.538 -196.717 508.184 Q -193.264 506.829 -188.523 505.096 "></path>
    <path id="STROKE_28a256ae-c383-45bd-a47b-edf101a0b632" opacity="1.000" fill="none" stroke="#171612" stroke-width="3.794" stroke-opacity="1.000" stroke-linecap="round" stroke-linejoin="round" d="M -174.087 504.955 Q -174.119 504.931 -174.521 504.662 Q -174.923 504.393 -175.472 504.237 Q -176.020 504.080 -176.981 504.384 Q -177.943 504.687 -178.918 505.597 Q -179.894 506.506 -180.350 507.451 Q -180.806 508.395 -180.841 509.019 Q -180.876 509.644 -180.719 510.039 Q -180.561 510.434 -179.902 511.055 Q -179.244 511.677 -177.089 512.816 Q -174.935 513.954 -173.632 514.491 Q -172.328 515.028 -171.881 515.306 Q -171.433 515.583 -171.114 515.970 Q -170.795 516.357 -174.797 520.466 Q -174.847 520.478 -175.074 520.519 "></path>
  </g>
</svg>